<svg width="463" height="428" viewBox="0 0 463 428" fill="none" xmlns="http://www.w3.org/2000/svg">
<rect width="463" height="428" rx="100" fill="white"/>
<path d="M169.76 79.6248C164.76 68.744 151.654 64.0559 141.748 70.7836C126.795 80.9395 113.491 93.5937 102.393 108.282C86.8167 128.898 76.0044 152.968 70.793 178.63C65.5815 204.292 66.1105 230.858 72.3391 256.273C76.8185 274.551 84.1593 291.881 94.0232 307.585C100.329 317.624 114.08 318.633 122.931 310.746V310.746C131.298 303.29 132.115 290.627 126.433 280.966C120.017 270.056 115.185 258.175 112.129 245.705C107.458 226.644 107.061 206.719 110.97 187.472C114.878 168.226 122.988 150.173 134.67 134.711C142.146 124.817 150.956 116.153 160.799 108.973C170.054 102.221 174.542 90.0342 169.76 79.6248V79.6248Z" fill="black"/>
<path d="M364.622 155.988C374.867 151.523 379.813 139.642 374.479 129.822C367.085 116.212 357.917 103.693 347.214 92.6333C331.904 76.814 313.751 64.2888 293.791 55.7729C273.832 47.257 252.456 42.9172 230.886 43.0012C216.182 43.0585 201.583 45.1706 187.476 49.2561C176.435 52.4538 171.486 64.7497 175.775 75.4149V75.4149C180.241 86.5211 192.993 91.5427 204.653 88.8324C213.295 86.8234 222.142 85.7855 231.039 85.7509C247.217 85.6879 263.249 88.9428 278.219 95.3297C293.188 101.717 306.803 111.111 318.285 122.975C324.883 129.792 330.703 137.349 335.645 145.491C341.683 155.439 353.954 160.637 364.622 155.988V155.988Z" fill="black"/>
<path d="M137.362 328.185C130.189 336.886 131.094 349.829 140.356 356.26C155.095 366.494 171.365 374.204 188.549 379.05C212.148 385.706 236.877 386.793 260.932 382.233C284.986 377.672 307.76 367.578 327.59 352.688C342.147 341.758 354.848 328.445 365.221 313.307C371.535 304.094 367.86 291.776 358.158 286.242V286.242C347.98 280.437 335.135 284.355 328.036 293.677C321.014 302.896 312.787 311.093 303.567 318.016C288.695 329.184 271.615 336.754 253.574 340.174C235.533 343.595 216.986 342.78 199.286 337.788C188.546 334.759 178.282 330.238 168.762 324.373C158.606 318.117 144.95 318.981 137.362 328.185V328.185Z" fill="black"/>
</svg>
